<svg xmlns="http://www.w3.org/2000/svg" viewBox="0 0 640 120">
  <defs>
    <linearGradient id="bg" x1="0%" y1="0%" x2="100%" y2="100%">
      <stop offset="0%" stop-color="#0f172a"/>
      <stop offset="100%" stop-color="#1e293b"/>
    </linearGradient>
    <linearGradient id="accent" x1="0%" y1="0%" x2="100%" y2="0%">
      <stop offset="0%" stop-color="#818cf8"/>
      <stop offset="100%" stop-color="#c084fc"/>
    </linearGradient>
  </defs>
  <rect width="640" height="120" rx="12" fill="url(#bg)"/>
  <rect x="0" y="108" width="640" height="4" rx="0 0 12 12" fill="url(#accent)" opacity="0.6"/>
  <!-- Calendar icon -->
  <rect x="40" y="30" width="52" height="52" rx="10" fill="none" stroke="url(#accent)" stroke-width="2.5"/>
  <line x1="40" y1="46" x2="92" y2="46" stroke="url(#accent)" stroke-width="2"/>
  <line x1="54" y1="24" x2="54" y2="36" stroke="#818cf8" stroke-width="2.5" stroke-linecap="round"/>
  <line x1="78" y1="24" x2="78" y2="36" stroke="#c084fc" stroke-width="2.5" stroke-linecap="round"/>
  <circle cx="58" cy="60" r="3" fill="#818cf8"/>
  <circle cx="72" cy="60" r="3" fill="#a78bfa"/>
  <circle cx="58" cy="72" r="3" fill="#a78bfa"/>
  <circle cx="72" cy="72" r="3" fill="#c084fc"/>
  <!-- Sparkle -->
  <path d="M100 34 L102 30 L104 34 L108 36 L104 38 L102 42 L100 38 L96 36Z" fill="#c084fc" opacity="0.7"/>
  <!-- Text -->
  <text x="128" y="56" font-family="system-ui, -apple-system, sans-serif" font-size="28" font-weight="700" fill="#f8fafc">agent-skills</text>
  <text x="128" y="80" font-family="system-ui, -apple-system, sans-serif" font-size="14" fill="#94a3b8">Give your AI agent superpowers beyond code</text>
</svg>
